<svg width="60" height="60" viewBox="0 0 60 60" fill="none" xmlns="http://www.w3.org/2000/svg">
<path d="M26 2.3094C28.4752 0.880338 31.5248 0.880339 34 2.3094L51.9808 12.6906C54.456 14.1197 55.9808 16.7607 55.9808 19.6188V40.3812C55.9808 43.2393 54.456 45.8803 51.9808 47.3094L34 57.6906C31.5248 59.1197 28.4752 59.1197 26 57.6906L8.01924 47.3094C5.54403 45.8803 4.01924 43.2393 4.01924 40.3812V19.6188C4.01924 16.7607 5.54403 14.1197 8.01924 12.6906L26 2.3094Z" fill="#FFA69E"/>
<path d="M28.5606 36.0031C28.7031 36.0031 28.8456 35.9506 28.9581 35.8381L33.8481 30.9481C34.6431 30.1531 34.6431 28.8481 33.8481 28.0531L28.9581 23.1631C28.7406 22.9456 28.3806 22.9456 28.1631 23.1631C27.9456 23.3806 27.9456 23.7406 28.1631 23.9581L33.0531 28.8481C33.4131 29.2081 33.4131 29.7931 33.0531 30.1531L28.1631 35.0431C27.9456 35.2606 27.9456 35.6206 28.1631 35.8381C28.2756 35.9431 28.4181 36.0031 28.5606 36.0031Z" fill="#292D32"/>
</svg>
