<svg width="80" height="80" viewBox="0 0 80 80" fill="none" xmlns="http://www.w3.org/2000/svg">
<path d="M36 2.3094C38.4752 0.880339 41.5248 0.880338 44 2.3094L70.641 17.6906C73.1162 19.1197 74.641 21.7607 74.641 24.6188V55.3812C74.641 58.2393 73.1162 60.8803 70.641 62.3094L44 77.6906C41.5248 79.1197 38.4752 79.1197 36 77.6906L9.35898 62.3094C6.88377 60.8803 5.35898 58.2393 5.35898 55.3812V24.6188C5.35898 21.7607 6.88377 19.1197 9.35898 17.6906L36 2.3094Z" fill="#CCE6F4"/>
<path d="M38.5 47.225C38.6583 47.225 38.8167 47.1667 38.9417 47.0417L44.375 41.6083C45.2583 40.725 45.2583 39.275 44.375 38.3917L38.9417 32.9583C38.7 32.7167 38.3 32.7167 38.0583 32.9583C37.8167 33.2 37.8167 33.6 38.0583 33.8417L43.4917 39.275C43.8917 39.675 43.8917 40.325 43.4917 40.725L38.0583 46.1583C37.8167 46.4 37.8167 46.8 38.0583 47.0417C38.1833 47.1583 38.3417 47.225 38.5 47.225Z" fill="#292D32"/>
<path d="M38.5 47.2248C38.6583 47.2248 38.8167 47.1664 38.9417 47.0414L44.375 41.6081C45.2583 40.7248 45.2583 39.2748 44.375 38.3914L38.9417 32.9581C38.7 32.7164 38.3 32.7164 38.0583 32.9581C37.8167 33.1998 37.8167 33.5998 38.0583 33.8414L43.4917 39.2748C43.8917 39.6748 43.8917 40.3248 43.4917 40.7248L38.0583 46.1581C37.8167 46.3998 37.8167 46.7998 38.0583 47.0414C38.1833 47.1581 38.3417 47.2248 38.5 47.2248Z" fill="#292D32"/>
</svg>
