<svg width="60" height="60" viewBox="0 0 60 60" fill="none" xmlns="http://www.w3.org/2000/svg">
<path d="M26 2.3094C28.4752 0.880338 31.5248 0.880339 34 2.3094L51.9808 12.6906C54.456 14.1197 55.9808 16.7607 55.9808 19.6188V40.3812C55.9808 43.2393 54.456 45.8803 51.9808 47.3094L34 57.6906C31.5248 59.1197 28.4752 59.1197 26 57.6906L8.01924 47.3094C5.54403 45.8803 4.01924 43.2393 4.01924 40.3812V19.6188C4.01924 16.7607 5.54403 14.1197 8.01924 12.6906L26 2.3094Z" fill="#CCE6F4"/>
<path d="M28.75 36.5024C28.8925 36.5024 29.035 36.4499 29.1475 36.3374L34.0375 31.4474C34.8325 30.6524 34.8325 29.3474 34.0375 28.5524L29.1475 23.6624C28.93 23.4449 28.57 23.4449 28.3525 23.6624C28.135 23.8799 28.135 24.2399 28.3525 24.4574L33.2425 29.3474C33.6025 29.7074 33.6025 30.2924 33.2425 30.6524L28.3525 35.5424C28.135 35.7599 28.135 36.1199 28.3525 36.3374C28.465 36.4424 28.6075 36.5024 28.75 36.5024Z" fill="#292D32"/>
</svg>
