<svg width="280" height="220" viewBox="0 0 280 220" fill="none" xmlns="http://www.w3.org/2000/svg">
<g clip-path="url(#clip0_68_433)">
<path d="M129.491 47.3307H59.97C59.6287 47.3303 59.3015 47.1923 59.0601 46.9468C58.8188 46.7013 58.683 46.3685 58.6826 46.0213V28.4808C58.683 28.1337 58.8188 27.8009 59.0601 27.5554C59.3015 27.3099 59.6287 27.1718 59.97 27.1714H129.491C129.832 27.1718 130.16 27.3099 130.401 27.5554C130.642 27.8009 130.778 28.1337 130.778 28.4808V46.0213C130.778 46.3685 130.642 46.7013 130.401 46.9468C130.16 47.1923 129.832 47.3303 129.491 47.3307ZM59.97 27.6952C59.7652 27.6954 59.5689 27.7782 59.4241 27.9255C59.2793 28.0728 59.1978 28.2725 59.1976 28.4808V46.0213C59.1978 46.2296 59.2793 46.4293 59.4241 46.5766C59.5689 46.7239 59.7652 46.8067 59.97 46.807H129.491C129.696 46.8067 129.892 46.7239 130.037 46.5766C130.182 46.4293 130.263 46.2296 130.263 46.0213V28.4808C130.263 28.2725 130.182 28.0728 130.037 27.9255C129.892 27.7782 129.696 27.6954 129.491 27.6952L59.97 27.6952Z" fill="#2F2E41"/>
<path d="M70.5997 42.3983C73.4773 42.3983 75.8101 39.9707 75.8101 36.976C75.8101 33.9814 73.4773 31.5537 70.5997 31.5537C67.722 31.5537 65.3892 33.9814 65.3892 36.976C65.3892 39.9707 67.722 42.3983 70.5997 42.3983Z" fill="#FFA69E"/>
<path d="M99.1356 110.491H68.4366C68.0975 110.49 67.7724 110.35 67.5326 110.1C67.2928 109.851 67.1579 109.513 67.1575 109.16V75.888C67.1579 75.5351 67.2928 75.1968 67.5326 74.9472C67.7724 74.6977 68.0975 74.5573 68.4366 74.5569H99.1356C99.4747 74.5573 99.7999 74.6977 100.04 74.9472C100.279 75.1968 100.414 75.5351 100.415 75.888V109.16C100.414 109.513 100.279 109.851 100.04 110.1C99.7999 110.35 99.4747 110.49 99.1356 110.491ZM68.4366 75.0893C68.2332 75.0896 68.0381 75.1738 67.8942 75.3235C67.7503 75.4732 67.6694 75.6763 67.6692 75.888V109.16C67.6694 109.371 67.7503 109.574 67.8942 109.724C68.0381 109.874 68.2332 109.958 68.4366 109.958H99.1356C99.3391 109.958 99.5342 109.874 99.6781 109.724C99.8219 109.574 99.9029 109.371 99.9031 109.16V75.888C99.9029 75.6763 99.8219 75.4732 99.6781 75.3235C99.5342 75.1738 99.3391 75.0896 99.1356 75.0893H68.4366Z" fill="#2F2E41"/>
<path d="M74.9781 81.4182C74.7478 81.4182 74.5269 81.5134 74.364 81.6829C74.2012 81.8524 74.1097 82.0823 74.1097 82.3219C74.1097 82.5616 74.2012 82.7915 74.364 82.961C74.5269 83.1304 74.7478 83.2256 74.9781 83.2256H92.5944C92.8247 83.2256 93.0456 83.1304 93.2084 82.961C93.3713 82.7915 93.4628 82.5616 93.4628 82.3219C93.4628 82.0823 93.3713 81.8524 93.2084 81.6829C93.0456 81.5134 92.8247 81.4182 92.5944 81.4182H74.9781Z" fill="#454545"/>
<path d="M74.9782 86.7427C74.864 86.7425 74.7509 86.7657 74.6453 86.811C74.5398 86.8563 74.4439 86.9228 74.3631 87.0068C74.2823 87.0907 74.2182 87.1904 74.1744 87.3002C74.1307 87.4099 74.1082 87.5276 74.1082 87.6464C74.1082 87.7652 74.1307 87.8829 74.1744 87.9926C74.2182 88.1024 74.2823 88.2021 74.3631 88.286C74.4439 88.3699 74.5398 88.4365 74.6453 88.4818C74.7509 88.5271 74.864 88.5503 74.9782 88.5501H92.5944C92.8248 88.5501 93.0456 88.4549 93.2085 88.2854C93.3714 88.1159 93.4629 87.8861 93.4629 87.6464C93.4629 87.4067 93.3714 87.1768 93.2085 87.0074C93.0456 86.8379 92.8248 86.7427 92.5944 86.7427H74.9782Z" fill="#454545"/>
<path d="M83.7866 103.63C82.7055 103.63 81.6486 103.296 80.7497 102.671C79.8508 102.046 79.1502 101.157 78.7365 100.118C78.3227 99.0786 78.2145 97.9349 78.4254 96.8314C78.6363 95.7279 79.1569 94.7143 79.9214 93.9188C80.6859 93.1233 81.6599 92.5815 82.7202 92.362C83.7806 92.1425 84.8796 92.2551 85.8785 92.6857C86.8773 93.1162 87.731 93.8454 88.3316 94.7808C88.9323 95.7163 89.2528 96.8161 89.2528 97.9412C89.2512 99.4493 88.6748 100.895 87.65 101.962C86.6252 103.028 85.2358 103.628 83.7866 103.63Z" fill="#FFA69E"/>
<path d="M149.426 0H180.125C180.464 0.000414395 180.789 0.14079 181.029 0.390335C181.269 0.63988 181.403 0.978217 181.404 1.33113V34.6028C181.403 34.9557 181.269 35.294 181.029 35.5436C180.789 35.7931 180.464 35.9335 180.125 35.9339H149.426C149.087 35.9335 148.762 35.7931 148.522 35.5436C148.282 35.294 148.147 34.9557 148.147 34.6028V1.33113C148.147 0.978217 148.282 0.63988 148.522 0.390335C148.762 0.14079 149.087 0.000414395 149.426 0ZM180.125 35.4015C180.328 35.4012 180.523 35.317 180.667 35.1673C180.811 35.0175 180.892 34.8145 180.892 34.6028V1.33113C180.892 1.11938 180.811 0.916363 180.667 0.766632C180.523 0.616901 180.328 0.532681 180.125 0.53245H149.426C149.222 0.532681 149.027 0.616901 148.883 0.766632C148.739 0.916363 148.659 1.11938 148.658 1.33113V34.6028C148.659 34.8145 148.739 35.0175 148.883 35.1673C149.027 35.317 149.222 35.4012 149.426 35.4015H180.125Z" fill="#2F2E41"/>
<path d="M173.584 29.0726C173.814 29.0726 174.035 28.9774 174.198 28.8079C174.36 28.6384 174.452 28.4085 174.452 28.1689C174.452 27.9292 174.36 27.6993 174.198 27.5298C174.035 27.3603 173.814 27.2651 173.584 27.2651H155.967C155.737 27.2651 155.516 27.3603 155.353 27.5298C155.19 27.6993 155.099 27.9292 155.099 28.1689C155.099 28.4085 155.19 28.6384 155.353 28.8079C155.516 28.9774 155.737 29.0726 155.967 29.0726H173.584Z" fill="#454545"/>
<path d="M173.584 23.7481C173.814 23.7481 174.035 23.6529 174.198 23.4834C174.36 23.3139 174.452 23.0841 174.452 22.8444C174.452 22.6047 174.36 22.3749 174.198 22.2054C174.035 22.0359 173.814 21.9407 173.584 21.9407H155.967C155.737 21.9407 155.516 22.0359 155.353 22.2054C155.19 22.3749 155.099 22.6047 155.099 22.8444C155.099 23.0841 155.19 23.3139 155.353 23.4834C155.516 23.6529 155.737 23.7481 155.967 23.7481H173.584Z" fill="#454545"/>
<path d="M164.775 6.86133C165.856 6.86133 166.913 7.19495 167.812 7.82001C168.711 8.44507 169.412 9.33349 169.825 10.3729C170.239 11.4124 170.347 12.5561 170.136 13.6596C169.925 14.763 169.405 15.7766 168.64 16.5722C167.876 17.3677 166.902 17.9095 165.842 18.129C164.781 18.3485 163.682 18.2358 162.683 17.8053C161.685 17.3747 160.831 16.6456 160.23 15.7102C159.63 14.7747 159.309 13.6749 159.309 12.5498C159.311 11.0417 159.887 9.59576 160.912 8.52933C161.937 7.4629 163.326 6.86303 164.775 6.86133Z" fill="#FFA69E"/>
<path d="M117.802 107.809C118.883 107.809 119.94 108.142 120.838 108.768C121.737 109.393 122.438 110.281 122.852 111.32C123.265 112.36 123.374 113.504 123.163 114.607C122.952 115.711 122.431 116.724 121.667 117.52C120.902 118.315 119.928 118.857 118.868 119.077C117.808 119.296 116.709 119.183 115.71 118.753C114.711 118.322 113.857 117.593 113.257 116.658C112.656 115.722 112.335 114.622 112.335 113.497C112.337 111.989 112.913 110.543 113.938 109.477C114.963 108.41 116.352 107.811 117.802 107.809Z" fill="#FFA69E"/>
<path d="M59.1659 68.8339C64.5983 64.4554 70.9451 61.4696 77.6925 60.1182C84.4935 58.7696 91.5066 59.1446 98.1389 61.2116C101.473 62.2447 104.676 63.6891 107.68 65.514C110.742 67.3763 113.508 69.6687 116.169 72.096C118.865 74.5548 121.472 77.123 124.287 79.4379C132.322 86.1216 142.296 89.7733 152.583 89.7967C153.433 89.7981 154.282 89.7737 155.13 89.7236C155.59 89.6972 155.593 88.949 155.13 88.9755C144.645 89.5764 134.291 86.3203 125.88 79.7773C122.963 77.5075 120.3 74.9121 117.58 72.3971C114.944 69.9587 112.238 67.5869 109.247 65.6279C101.931 60.8318 93.4207 58.3835 84.7767 58.5886C76.1328 58.7936 67.7382 61.6428 60.6404 66.7808C59.9655 67.2692 59.3062 67.7795 58.6576 68.3049C58.293 68.6003 58.805 69.1262 59.1659 68.8339V68.8339Z" fill="#2F2E41"/>
<path d="M58.784 72.45C60.8471 72.45 62.5197 70.7094 62.5197 68.5624C62.5197 66.4153 60.8471 64.6748 58.784 64.6748C56.7208 64.6748 55.0483 66.4153 55.0483 68.5624C55.0483 70.7094 56.7208 72.45 58.784 72.45Z" fill="#2F2E41"/>
<path d="M197.759 124.066C199.823 124.066 201.495 122.326 201.495 120.179C201.495 118.032 199.823 116.291 197.759 116.291C195.696 116.291 194.024 118.032 194.024 120.179C194.024 122.326 195.696 124.066 197.759 124.066Z" fill="#2F2E41"/>
<path d="M217.33 98.0329H156.375C156.036 98.0325 155.71 97.8921 155.471 97.6426C155.231 97.393 155.096 97.0547 155.096 96.7018V63.6964C155.096 63.3435 155.231 63.0051 155.471 62.7556C155.71 62.506 156.036 62.3656 156.375 62.3652H217.33C217.669 62.3656 217.994 62.506 218.234 62.7556C218.474 63.0051 218.608 63.3435 218.609 63.6964V96.7018C218.608 97.0547 218.474 97.393 218.234 97.6426C217.994 97.8921 217.669 98.0325 217.33 98.0329ZM156.375 62.8977C156.171 62.8979 155.976 62.9822 155.832 63.1319C155.688 63.2816 155.607 63.4846 155.607 63.6964V96.7018C155.607 96.9135 155.688 97.1166 155.832 97.2663C155.976 97.416 156.171 97.5002 156.375 97.5005H217.33C217.533 97.5002 217.728 97.416 217.872 97.2663C218.016 97.1166 218.097 96.9135 218.097 96.7018V63.6964C218.097 63.4846 218.016 63.2816 217.872 63.1319C217.728 62.9822 217.533 62.8979 217.33 62.8977H156.375Z" fill="#2F2E41"/>
<path d="M166.595 79.4799C169.473 79.4799 171.806 77.0522 171.806 74.0576C171.806 71.0629 169.473 68.6353 166.595 68.6353C163.718 68.6353 161.385 71.0629 161.385 74.0576C161.385 77.0522 163.718 79.4799 166.595 79.4799Z" fill="#FFA69E"/>
<path d="M178.629 70.4426C178.515 70.4424 178.402 70.4656 178.296 70.5109C178.191 70.5563 178.095 70.6228 178.014 70.7067C177.933 70.7907 177.869 70.8904 177.825 71.0001C177.781 71.1099 177.759 71.2275 177.759 71.3463C177.759 71.4652 177.781 71.5828 177.825 71.6926C177.869 71.8023 177.933 71.902 178.014 71.986C178.095 72.0699 178.191 72.1364 178.296 72.1817C178.402 72.2271 178.515 72.2503 178.629 72.2501H211.451C211.681 72.2501 211.902 72.1549 212.065 71.9854C212.228 71.8159 212.319 71.586 212.319 71.3463C212.319 71.1067 212.228 70.8768 212.065 70.7073C211.902 70.5378 211.681 70.4426 211.451 70.4426H178.629Z" fill="#454545"/>
<path d="M113.205 121.833C113.091 121.833 112.978 121.856 112.873 121.901C112.767 121.946 112.671 122.013 112.59 122.097C112.509 122.181 112.445 122.281 112.402 122.39C112.358 122.5 112.335 122.618 112.335 122.736C112.335 122.855 112.358 122.973 112.402 123.083C112.445 123.192 112.509 123.292 112.59 123.376C112.671 123.46 112.767 123.527 112.873 123.572C112.978 123.617 113.091 123.64 113.205 123.64H146.027C146.258 123.64 146.478 123.545 146.641 123.376C146.804 123.206 146.896 122.976 146.896 122.736C146.896 122.497 146.804 122.267 146.641 122.097C146.478 121.928 146.258 121.833 146.027 121.833H113.205Z" fill="#454545"/>
<path d="M178.629 75.8647C178.515 75.8645 178.402 75.8877 178.296 75.9331C178.191 75.9784 178.095 76.0449 178.014 76.1289C177.933 76.2128 177.869 76.3125 177.825 76.4222C177.781 76.532 177.759 76.6496 177.759 76.7685C177.759 76.8873 177.781 77.0049 177.825 77.1147C177.869 77.2244 177.933 77.3241 178.014 77.4081C178.095 77.492 178.191 77.5585 178.296 77.6039C178.402 77.6492 178.515 77.6724 178.629 77.6722H196.245C196.476 77.6722 196.696 77.577 196.859 77.4075C197.022 77.238 197.114 77.0081 197.114 76.7685C197.114 76.5288 197.022 76.2989 196.859 76.1294C196.696 75.96 196.476 75.8647 196.245 75.8647H178.629Z" fill="#454545"/>
<path d="M128.295 109.562C128.181 109.562 128.068 109.585 127.962 109.63C127.857 109.675 127.761 109.742 127.68 109.826C127.599 109.91 127.535 110.01 127.491 110.119C127.448 110.229 127.425 110.347 127.425 110.465C127.425 110.584 127.448 110.702 127.491 110.812C127.535 110.921 127.599 111.021 127.68 111.105C127.761 111.189 127.857 111.256 127.962 111.301C128.068 111.346 128.181 111.369 128.295 111.369H145.911C146.142 111.369 146.363 111.274 146.526 111.105C146.688 110.935 146.78 110.705 146.78 110.465C146.78 110.226 146.688 109.996 146.526 109.826C146.363 109.657 146.142 109.562 145.911 109.562H128.295Z" fill="#454545"/>
<path d="M128.295 115.697C128.181 115.697 128.068 115.72 127.962 115.766C127.857 115.811 127.761 115.877 127.68 115.961C127.599 116.045 127.535 116.145 127.491 116.255C127.448 116.365 127.425 116.482 127.425 116.601C127.425 116.72 127.448 116.837 127.491 116.947C127.535 117.057 127.599 117.157 127.68 117.241C127.761 117.325 127.857 117.391 127.962 117.436C128.068 117.482 128.181 117.505 128.295 117.505H145.911C146.142 117.505 146.363 117.409 146.526 117.24C146.688 117.071 146.78 116.841 146.78 116.601C146.78 116.361 146.688 116.131 146.526 115.962C146.363 115.792 146.142 115.697 145.911 115.697H128.295Z" fill="#454545"/>
<path d="M162.599 84.5337C161.938 84.5337 161.401 84.9391 161.401 85.4374C161.401 85.9357 161.938 86.3411 162.599 86.3411H210.965C211.626 86.3411 212.163 85.9357 212.163 85.4374C212.163 84.9391 211.626 84.5337 210.965 84.5337H162.599Z" fill="#454545"/>
<path d="M82.3859 33.3069C81.7968 33.3069 81.3174 33.7123 81.3174 34.2106C81.3174 34.7089 81.7968 35.1143 82.3859 35.1143H125.518C126.107 35.1143 126.587 34.7089 126.587 34.2106C126.587 33.7123 126.107 33.3069 125.518 33.3069H82.3859Z" fill="#454545"/>
<path d="M82.3859 39.4421C81.7968 39.4421 81.3174 39.8476 81.3174 40.3458C81.3174 40.8441 81.7968 41.2495 82.3859 41.2495H125.518C126.108 41.2495 126.587 40.8441 126.587 40.3458C126.587 39.8476 126.108 39.4421 125.518 39.4421H82.3859Z" fill="#454545"/>
<path d="M162.599 84.5337C161.938 84.5337 161.401 84.9391 161.401 85.4374C161.401 85.9357 161.938 86.3411 162.599 86.3411H210.965C211.626 86.3411 212.163 85.9357 212.163 85.4374C212.163 84.9391 211.626 84.5337 210.965 84.5337H162.599Z" fill="#454545"/>
<path d="M162.599 89.9561C161.938 89.9561 161.401 90.3615 161.401 90.8598C161.401 91.358 161.938 91.7635 162.599 91.7635H210.965C211.626 91.7635 212.163 91.358 212.163 90.8598C212.163 90.3615 211.626 89.9561 210.965 89.9561H162.599Z" fill="#454545"/>
<path d="M151.475 123.798C154.914 122.245 158.753 123.599 161.994 125.03C163.664 125.766 165.315 126.553 167.043 127.135C168.496 127.623 169.984 127.99 171.494 128.233C174.523 128.715 177.603 128.735 180.637 128.291C183.687 127.848 186.659 126.949 189.461 125.621C192.248 124.306 194.824 122.554 197.098 120.425C197.387 120.153 197.671 119.875 197.949 119.59C198.28 119.253 197.772 118.724 197.441 119.061C195.251 121.283 192.736 123.13 189.991 124.534C187.257 125.933 184.341 126.908 181.335 127.428C178.32 127.957 175.245 128.012 172.214 127.592C170.702 127.379 169.209 127.041 167.748 126.581C166.071 126.014 164.425 125.348 162.819 124.589C159.548 123.127 155.913 121.695 152.318 122.704C151.906 122.822 151.503 122.972 151.112 123.152C150.689 123.343 151.054 123.988 151.475 123.798V123.798Z" fill="#2F2E41"/>
<path d="M150.028 127.092H109.014C108.561 127.091 108.127 126.941 107.807 126.674C107.486 126.407 107.306 126.046 107.305 125.668V106.603C107.306 106.225 107.486 105.863 107.807 105.597C108.127 105.33 108.561 105.18 109.014 105.179H150.028C150.481 105.18 150.915 105.33 151.235 105.597C151.556 105.863 151.736 106.225 151.737 106.603V125.668C151.736 126.046 151.556 126.407 151.235 126.674C150.915 126.941 150.481 127.091 150.028 127.092ZM109.014 105.749C108.742 105.749 108.482 105.839 108.29 105.999C108.097 106.159 107.989 106.376 107.989 106.603V125.668C107.989 125.895 108.097 126.112 108.29 126.272C108.482 126.432 108.742 126.522 109.014 126.522H150.028C150.3 126.522 150.56 126.432 150.752 126.272C150.945 126.112 151.053 125.895 151.053 125.668V106.603C151.053 106.376 150.945 106.159 150.752 105.999C150.56 105.839 150.3 105.749 150.028 105.749H109.014Z" fill="#2F2E41"/>
<path d="M210.385 117.277L204.913 120.168C202.96 121.201 201.075 121.024 200.353 118.872C200.182 118.36 200.118 117.815 200.167 117.275C200.217 116.735 200.378 116.213 200.639 115.743C200.9 115.274 201.256 114.869 201.682 114.556C202.107 114.243 202.593 114.029 203.105 113.93L208.306 112.919L230.58 105.229L244.072 95.2729L249.018 103.473L233.428 112.228L210.385 117.277Z" fill="#FFB8B8"/>
<path d="M235.929 213.26L231.742 212.533L232.207 204.304H236.627L235.929 213.26Z" fill="#FFB8B8"/>
<path d="M276.563 205.222L272.511 206.537L269.362 198.973L273.307 196.9L276.563 205.222Z" fill="#FFB8B8"/>
<path d="M274.306 198.011L269.189 200.189L244.767 166.787L237.092 205.998L231.975 205.03C228.692 171.224 226.016 136.743 229.3 120.435L248.256 119.588L256.862 148.149L261.049 167.513L274.306 198.011Z" fill="#2F2E41"/>
<path d="M235.699 219.915C234.933 220.086 234.135 219.998 233.421 219.663L230.934 218.499C228.849 218.387 227.429 218.819 226.268 217.243C225.94 216.792 225.735 216.258 225.672 215.697C225.61 215.135 225.693 214.567 225.913 214.05C226.131 213.532 226.477 213.083 226.917 212.75C227.357 212.417 227.874 212.212 228.415 212.156L231.831 209.916L232.01 211.595C233.571 212.515 235.425 212.118 237.389 211.222L238.461 215.127C238.6 215.63 238.637 216.158 238.571 216.677C238.505 217.196 238.338 217.696 238.079 218.145C237.82 218.594 237.475 218.983 237.065 219.287C236.656 219.592 236.191 219.805 235.699 219.915Z" fill="#2F2E41"/>
<path d="M278.22 211.905C277.55 212.325 276.768 212.511 275.988 212.436L273.272 212.175C271.265 212.774 270.057 213.663 268.467 212.564C268.016 212.248 267.655 211.813 267.421 211.303C267.187 210.793 267.088 210.228 267.135 209.665C267.179 209.101 267.367 208.559 267.679 208.095C267.991 207.632 268.416 207.263 268.91 207.027L271.442 203.754L272.136 205.282C273.899 205.625 275.528 204.622 277.107 203.111L279.339 206.442C279.627 206.872 279.827 207.358 279.927 207.872C280.026 208.385 280.024 208.914 279.919 209.426C279.814 209.938 279.609 210.423 279.317 210.849C279.025 211.275 278.652 211.635 278.22 211.905Z" fill="#2F2E41"/>
<path d="M241.278 85.2171C245.903 85.2171 249.652 81.3159 249.652 76.5035C249.652 71.691 245.903 67.7898 241.278 67.7898C236.654 67.7898 232.905 71.691 232.905 76.5035C232.905 81.3159 236.654 85.2171 241.278 85.2171Z" fill="#FFB8B8"/>
<path d="M251.512 94.899L240.581 92.4785L239.185 83.0388L246.86 81.3445L251.512 94.899Z" fill="#FFB8B8"/>
<path d="M248.489 120.798H228.951L233.355 109.292C233.035 105.333 234.647 102.421 236.955 99.8859L239.883 92.2365C244.613 88.9965 248.18 89.2386 251.978 93.4468C256.48 100.081 253.364 110.054 248.489 120.798Z" fill="#FFA69E"/>
<path d="M239.65 145.244L239.095 151.605C238.897 153.875 237.751 155.443 235.616 154.935C235.107 154.814 234.63 154.58 234.217 154.25C233.804 153.919 233.464 153.499 233.221 153.02C232.978 152.54 232.837 152.011 232.809 151.469C232.78 150.928 232.865 150.386 233.056 149.881L234.999 144.76L240.581 121.04L239.65 103.854H248.954L247.791 122.25L239.65 145.244Z" fill="#FFB8B8"/>
<path d="M249.652 104.339H238.952L239.703 97.0755C239.752 95.8193 240.251 94.6276 241.101 93.7346C241.951 92.8415 243.092 92.3115 244.298 92.2487C244.938 92.2154 245.577 92.3145 246.18 92.5401C246.782 92.7657 247.335 93.1133 247.808 93.563C248.28 94.0126 248.662 94.5553 248.932 95.1596C249.201 95.7639 249.353 96.4178 249.378 97.0836L249.652 104.339Z" fill="#FFA69E"/>
<path d="M251.642 67.5439C253.38 67.5439 254.789 66.0775 254.789 64.2686C254.789 62.4598 253.38 60.9934 251.642 60.9934C249.904 60.9934 248.494 62.4598 248.494 64.2686C248.494 66.0775 249.904 67.5439 251.642 67.5439Z" fill="#2F2E41"/>
<path d="M248.398 63.4667C248.45 62.6358 248.804 61.8565 249.389 61.2878C249.973 60.7191 250.744 60.4036 251.544 60.4056C251.479 60.397 251.415 60.3866 251.349 60.3821C250.516 60.3269 249.696 60.6181 249.07 61.1916C248.443 61.7651 248.061 62.5741 248.008 63.4406C247.954 64.3071 248.233 65.1603 248.784 65.8126C249.335 66.4649 250.112 66.8629 250.945 66.9191C251.011 66.9235 251.076 66.9218 251.142 66.9219C250.348 66.8173 249.622 66.4016 249.113 65.7597C248.603 65.1177 248.347 64.2978 248.398 63.4667Z" fill="#2F2E41"/>
<path d="M248.381 64.8655C245.574 62.4423 237.523 65.5221 237.004 67.1512C233.208 67.6895 230.334 69.994 230.334 74.0918V74.0918C232.591 75.0538 235.157 74.9353 237.932 74.0918C242.354 77.8424 242.657 82.5574 239.968 87.973L243.277 88.0419L247.378 81.8036L247.574 88.1313L255.159 87.973V78.9049C255.184 75.8899 254.517 72.9122 253.214 70.2191C252.032 67.8295 250.198 66.4342 248.381 64.8655Z" fill="#2F2E41"/>
<path d="M241.318 80.8867C242.149 80.8867 242.823 79.9049 242.823 78.6939C242.823 77.4829 242.149 76.5012 241.318 76.5012C240.486 76.5012 239.813 77.4829 239.813 78.6939C239.813 79.9049 240.486 80.8867 241.318 80.8867Z" fill="#FFB8B8"/>
<path d="M51.9498 81.4762C51.9498 81.4762 52.8558 65.1575 57.5591 68.8655C62.2624 72.5736 55.5051 82.9896 55.5051 82.9896L51.9498 81.4762Z" fill="#FFB9B9"/>
<path d="M34.4513 129.882C34.4513 129.882 44.899 142.088 39.0537 142.927C33.2084 143.766 30.9091 131.428 30.9091 131.428L34.4513 129.882Z" fill="#FFB9B9"/>
<path d="M20.8182 72.1056C22.1295 72.4647 23.3096 73.219 24.2103 74.2738C25.111 75.3285 25.6922 76.6367 25.8808 78.034L29.2041 102.65L33.8629 122.285C33.8629 122.285 36.1923 124.467 35.2606 125.679C34.3288 126.891 36.4253 131.982 36.4253 131.982L30.6017 133.921C30.6017 133.921 29.9029 128.83 28.7382 128.588C27.7146 128.375 16.2564 96.5211 13.4944 88.8044C13.1136 87.7404 12.8981 87.1352 12.8981 87.1352C12.8981 87.1352 13.364 70.8936 20.8182 72.1056Z" fill="#FFA69E"/>
<path d="M21.8821 200.474L25.4591 207.07C28.2291 213.225 25.7675 214.343 18.9758 211.292L17.4276 203.503L21.8821 200.474Z" fill="#FFB9B9"/>
<path d="M23.6868 209.241C23.6868 209.241 25.3848 206.364 25.999 206.846C26.6131 207.327 29.1463 209.414 29.1463 209.414L32.4459 212.703C32.4459 212.703 43.5939 213.929 36.5102 217.994C29.4266 222.059 25.5119 218.689 25.5119 218.689C25.5119 218.689 15.5906 219.225 15.7506 216.345C15.9107 213.464 19.1104 208.907 19.1104 208.907C19.1104 208.907 23.1431 211.721 23.6868 209.241Z" fill="#2F2E41"/>
<path d="M6.00903 125.909L9.36247 168.135C9.36247 168.135 9.47425 193.378 13.0512 198.264C16.6282 203.149 16.74 205.592 16.74 205.592L24.1175 201.637C24.1175 201.637 20.317 195.047 21.0994 194.038C21.5818 193.398 21.925 192.657 22.1055 191.866L20.0934 165.809L23.894 120.442L6.00903 125.909Z" fill="#2F2E41"/>
<path d="M15.1749 200.474L12.0451 209.082L4.94696 205.994L8.6917 199.543L15.1749 200.474Z" fill="#FFB9B9"/>
<path d="M9.9535 206.182C9.9535 206.182 12.6157 204.451 12.9484 205.143C13.2812 205.836 14.6123 208.78 14.6123 208.78L16.1097 213.108C16.1097 213.108 25.2609 219.169 17.4408 219.515C9.62074 219.861 7.62412 215.186 7.62412 215.186C7.62412 215.186 -1.19425 211.204 0.136838 208.78C1.46792 206.355 6.12668 203.841 6.12668 203.841C6.12668 203.841 8.45605 208.087 9.9535 206.182Z" fill="#2F2E41"/>
<path d="M34.4014 126.025L36.1899 164.878C36.1899 164.878 19.8699 200.008 18.0814 200.939C17.5484 201.225 17.076 201.62 16.6921 202.099C16.3081 202.579 16.0203 203.133 15.8457 203.731L6.00903 201.171L10.4803 193.727L20.317 168.833C20.317 168.833 21.8819 168.135 22.329 165.808C22.7762 163.482 23.6704 163.482 21.4348 163.017C19.1992 162.551 19.1992 160.225 19.1992 160.225L11.8216 124.862L34.4014 126.025Z" fill="#2F2E41"/>
<path d="M35.1802 57.2552C35.9713 52.1819 32.6607 47.4019 27.7857 46.5786C22.9106 45.7553 18.3173 49.2006 17.5262 54.2738C16.7351 59.3471 20.0458 64.1271 24.9208 64.9504C29.7958 65.7737 34.3891 62.3284 35.1802 57.2552Z" fill="#FFB9B9"/>
<path d="M18.4167 56.3459C18.4167 56.3459 17.746 68.2112 16.8517 69.3744C15.9575 70.5377 26.2413 70.305 26.2413 70.305C26.2413 70.305 25.5706 60.301 26.2413 59.3704C26.912 58.4398 18.4167 56.3459 18.4167 56.3459Z" fill="#FFB9B9"/>
<path d="M35.0712 128.585C35.0712 128.585 9.80865 126.259 5.11505 128.585C5.11505 128.585 6.8429 121.914 6.39644 121.217C6.07175 120.707 6.96756 101.707 6.68635 90.7461C6.5269 84.5613 5.15564 78.5214 9.14187 73.9296C10.4986 72.3698 12.012 71.0605 13.6093 70.4209C13.6093 70.4209 13.1629 66.001 15.3981 65.7687C15.3981 65.7687 23.8953 64.8365 27.0234 67.6302C28.0235 68.5172 28.6526 71.2204 28.7193 73.5494C27.1712 81.472 27.7191 90.2633 29.1397 99.3836C29.2267 99.9628 29.3223 100.545 29.418 101.127C30.9255 110.172 33.2042 119.498 35.0712 128.585Z" fill="#FFA69E"/>
<path d="M21.6814 58.5069C22.4377 58.46 23.1761 58.726 23.9272 58.8297C26.6141 59.2009 29.4093 57.1719 30.0026 54.4196C30.0501 54.0531 30.1551 53.6971 30.3133 53.366C30.7269 52.6633 31.6687 52.5294 32.445 52.6909C33.2214 52.8525 33.9573 53.2306 34.748 53.2738C35.9688 53.3405 37.1408 52.5584 37.7914 51.4813C38.4062 50.3702 38.6677 49.0852 38.5384 47.8101L37.9531 48.4493C37.7153 47.9257 37.6235 47.3432 37.6881 46.768C37.378 46.6821 37.0519 46.6804 36.741 46.7632C36.43 46.846 36.1447 47.0105 35.9124 47.2409C35.3964 47.2981 35.7858 46.2448 35.4024 45.8808C35.216 45.7616 34.9938 45.7183 34.7785 45.7593C33.6807 45.7704 32.7926 44.8965 31.9275 44.1931C30.4286 42.977 28.6758 42.145 26.8107 41.7642C25.571 41.5126 24.2528 41.4722 23.0772 41.9526C22.1282 42.3959 21.2717 43.0282 20.5559 43.8138C18.7153 45.6556 17.0855 47.8196 16.3198 50.3546C15.6973 52.4309 15.6796 54.6526 16.2691 56.7393C16.5776 57.8231 17.5075 61.5345 18.8688 61.6209C20.5793 61.7295 19.5524 58.6391 21.6814 58.5069Z" fill="#2F2E41"/>
<path d="M25.3831 73.248L28.5869 73.6052C28.5869 73.6052 31.7319 79.9548 31.5035 81.2793C31.2751 82.6037 30.7777 81.7996 32.1932 83.9186C33.6087 86.0376 37.6254 91.5147 38.1228 92.3187C38.6202 93.1228 52.18 82.3563 51.337 79.1305C51.337 79.1305 55.6196 82.3277 57.4543 82.7533C57.4543 82.7533 43.4798 101.826 41.5324 104.267C39.585 106.707 38.0177 106.206 35.3415 104.759C32.6653 103.312 19.1262 88.8766 19.1262 88.8766L25.3831 73.248Z" fill="#FFA69E"/>
<path opacity="0.1" d="M29.4182 101.127L18.2828 89.5391L21.1007 88.5828L29.1399 99.3834C29.2269 99.9627 29.3225 100.545 29.4182 101.127Z" fill="#2F2E41"/>
</g>
<defs>
<clipPath id="clip0_68_433">
<rect width="280" height="220" fill="white"/>
</clipPath>
</defs>
</svg>
